<?xml version="1.0" encoding="UTF-8"?>
<svg version="1.1" xmlns="http://www.w3.org/2000/svg" width="510" height="499">
<path d="M0 0 C0.59586914 0.42506836 1.19173828 0.85013672 1.80566406 1.28808594 C10.53094165 7.54743081 18.7927437 14.09234246 26.51708984 21.56835938 C28.06736285 23.06503388 29.63716113 24.53954178 31.20703125 26.015625 C59.78052937 53.28511481 77.75769148 91.24495925 84 130 C84.11569336 130.71752441 84.23138672 131.43504883 84.35058594 132.17431641 C91.80499825 181.04827487 79.23028633 232.38995044 50.30102539 272.40307617 C46.19500678 277.91455144 41.7177811 283.00524545 37 288 C35.91243658 289.28810702 34.82898087 290.57969534 33.75 291.875 C3.0962103 326.90790251 -44.36942345 347.68488318 -90.33642578 350.859375 C-142.95538852 353.63742473 -193.85224867 338.00357044 -233.5234375 302.9140625 C-239.41368193 297.6108413 -245.00527651 292.16503527 -250 286 C-250.93481267 284.8775349 -251.86971737 283.75514645 -252.8046875 282.6328125 C-259.28969514 274.76847353 -264.85944294 266.81570645 -270 258 C-270.50789063 257.20851563 -271.01578125 256.41703125 -271.5390625 255.6015625 C-296.34100504 216.74076482 -302.23291018 163.75972312 -292.73193359 119.13134766 C-286.76844725 93.61844709 -276.97221673 71.42384058 -262 50 C-261.4642334 49.23059082 -260.9284668 48.46118164 -260.37646484 47.66845703 C-258.86901525 45.51860986 -257.34682987 43.38072796 -255.8125 41.25 C-255.35504395 40.61151123 -254.89758789 39.97302246 -254.42626953 39.31518555 C-253.33576804 37.83729638 -252.17454322 36.41201917 -251 35 C-250.34 35 -249.68 35 -249 35 C-248.59382446 34.10704224 -248.59382446 34.10704224 -248.17944336 33.19604492 C-247.01394487 31.02596441 -245.85807034 29.60015376 -244.12890625 27.86328125 C-243.56042969 27.29061523 -242.99195313 26.71794922 -242.40625 26.12792969 C-241.7978125 25.52883789 -241.189375 24.92974609 -240.5625 24.3125 C-239.93214844 23.68891602 -239.30179688 23.06533203 -238.65234375 22.42285156 C-233.368559 17.25404796 -227.89182424 12.46994155 -222 8 C-220.95714844 7.20207031 -219.91429687 6.40414062 -218.83984375 5.58203125 C-157.33121617 -40.46198003 -63.51537131 -45.68010945 0 0 Z M-142 5 C-143.09368896 5.28085449 -143.09368896 5.28085449 -144.20947266 5.56738281 C-154.55869599 8.32431877 -164.34966814 12.39081424 -174 17 C-174.94141846 17.44617676 -174.94141846 17.44617676 -175.90185547 17.90136719 C-212.83280164 35.68898771 -240.58455956 69.68668702 -254.27734375 107.875 C-268.34070416 148.74783089 -264.46120449 192.21622399 -246.12890625 231.0546875 C-238.50309979 246.43023226 -227.9360585 259.77855051 -216 272 C-215.30003906 272.7734375 -214.60007813 273.546875 -213.87890625 274.34375 C-186.83275266 303.44604392 -145.0552457 317.18347617 -106.44140625 319.12890625 C-65.96668637 320.07605258 -25.58947996 304.45374927 3.9375 276.9375 C6.32192037 274.65439974 8.66821397 272.33670838 11 270 C12.35351562 268.66388672 12.35351562 268.66388672 13.734375 267.30078125 C43.18874853 236.673861 55.63470728 194.34397226 55.2109375 152.71875 C54.39505945 117.06185733 40.42084163 81.76050221 16.36523438 55.50488281 C15.12704353 54.14003868 13.92822071 52.73973539 12.734375 51.3359375 C-12.2710376 22.16295613 -49.39376522 5.75791175 -87 1 C-105.54561289 0.05532429 -123.94202133 0.3302928 -142 5 Z " fill="#668FE9" transform="translate(333,54)"/>
<path d="M0 0 C1.39390961 -0.0049926 1.39390961 -0.0049926 2.815979 -0.01008606 C4.76891592 -0.01511307 6.72186131 -0.01749571 8.67480469 -0.01733398 C11.61928886 -0.01951544 14.56339457 -0.03770309 17.5078125 -0.05664062 C40.22376416 -0.12629792 61.67967127 2.97783859 79.03125 19.25390625 C97.1911147 37.94788462 101.06442846 59.14497741 101.0234375 84.40234375 C101.02439423 85.72034973 101.02535095 87.03835571 101.02633667 88.39630127 C101.02779754 91.16281327 101.02571023 93.92929262 101.02099609 96.69580078 C101.01527725 100.2213689 101.01860166 103.74686121 101.02456856 107.27242661 C101.02906962 110.66990492 101.02591088 114.06736329 101.0234375 117.46484375 C101.02546173 118.72020935 101.02748596 119.97557495 101.02957153 121.26898193 C100.9856037 137.75509301 100.9856037 137.75509301 98.31640625 141.19921875 C97.61902344 141.68390625 96.92164063 142.16859375 96.203125 142.66796875 C95.38972656 143.23386719 94.57632813 143.79976562 93.73828125 144.3828125 C60.92846614 164.95083103 22.73148069 175.22774742 -15.953125 167.140625 C-17.33996146 166.82253419 -18.72537508 166.49818288 -20.109375 166.16796875 C-21.21732422 165.91055908 -21.21732422 165.91055908 -22.34765625 165.64794922 C-41.98366484 160.96892588 -60.91229795 152.72211855 -76.109375 139.16796875 C-77.58018871 136.22634133 -77.26111191 133.59430779 -77.28637695 130.31005859 C-77.29294815 129.60394943 -77.29951935 128.89784027 -77.30628967 128.17033386 C-77.32606045 125.82319019 -77.33770423 123.47611116 -77.34765625 121.12890625 C-77.35173178 120.32326862 -77.3558073 119.517631 -77.36000633 118.68758011 C-77.38090018 114.4092357 -77.39517781 110.13092351 -77.40454102 105.85253906 C-77.41550909 101.47305926 -77.44978551 97.09410122 -77.48971272 92.7148037 C-77.51614064 89.31712033 -77.52425657 85.91955516 -77.52782249 82.52177811 C-77.53263493 80.91055471 -77.54409208 79.29933462 -77.56286049 77.68821335 C-77.71661492 63.5936835 -76.02451836 49.7493667 -69.109375 37.16796875 C-68.42294922 35.89953125 -68.42294922 35.89953125 -67.72265625 34.60546875 C-61.12109641 23.35244665 -51.8396656 13.97812832 -40.109375 8.16796875 C-39.201875 7.70777344 -38.294375 7.24757812 -37.359375 6.7734375 C-25.3529754 0.98701992 -13.18199014 0.01692119 0 0 Z " fill="#245FDE" transform="translate(217.109375,189.83203125)"/>
<path d="M0 0 C8.47408717 2.58616586 15.08328905 11.03807236 21.0546875 17.25 C23.77692306 19.94340704 26.62246571 22.43286839 29.51538086 24.93945312 C33.03552013 28.03461529 36.42437289 31.26616597 39.82421875 34.4921875 C44.94523538 39.33211152 50.07568117 44.15944247 55.26171875 48.9296875 C59.92735101 53.22125091 64.56915326 57.53727313 69.19921875 61.8671875 C73.83100056 66.19501233 78.46980105 70.51474455 83.13671875 74.8046875 C84.09578125 75.68640625 85.05484375 76.568125 86.04296875 77.4765625 C88.19539266 79.40855746 90.38504421 81.24189868 92.63671875 83.0546875 C96.75123052 86.60584313 99.18680489 89.96938127 100.05078125 95.4140625 C100.40976842 102.25371283 99.08109212 106.62817838 94.63671875 111.8046875 C92.44625211 114.12207838 90.20431997 116.35971051 87.90234375 118.56640625 C85.78518011 120.65801792 83.90232818 122.82205578 82.01171875 125.1171875 C78.30908289 129.36208582 75.00830103 132.33760524 69.18359375 133.14453125 C62.64220084 133.38934386 58.31999686 131.97486228 53.14453125 127.7890625 C52.35820312 127.05171875 51.571875 126.314375 50.76171875 125.5546875 C47.80531264 122.80318082 44.83009536 120.08970036 41.78125 117.44140625 C37.83659272 114.0025454 34.00480684 110.45865042 30.19921875 106.8671875 C29.51891602 106.22749023 28.83861328 105.58779297 28.13769531 104.92871094 C25.23567783 102.19903803 22.33734639 99.46546607 19.43896484 96.73193359 C4.73518237 82.61376043 4.73518237 82.61376043 -10.55078125 69.14453125 C-13.33856582 66.82524937 -15.82887377 64.39803469 -18.36328125 61.8046875 C-24.25185444 55.69733206 -24.25185444 55.69733206 -30.67578125 50.1796875 C-34.87907492 46.46514891 -37.05089599 42.9913843 -37.86328125 37.3046875 C-36.66040407 28.88454727 -30.92739753 24.14947063 -25.10546875 18.51171875 C-22.83044855 16.26586547 -20.73317302 13.99606252 -18.67578125 11.5546875 C-8.06294787 -0.61737733 -8.06294787 -0.61737733 0 0 Z " fill="#245FDF" transform="translate(395.36328125,347.1953125)"/>
<path d="M0 0 C9.79854613 8.19043981 16.74509199 19.5001943 18.01147461 32.41699219 C18.1106768 34.52373989 18.13797314 36.61369686 18.12109375 38.72265625 C18.1154541 39.46725098 18.10981445 40.2118457 18.10400391 40.97900391 C17.97489716 46.85272162 17.20480669 51.93567721 14.80859375 57.34765625 C14.41800781 58.23710937 14.02742188 59.1265625 13.625 60.04296875 C6.83391229 73.85600267 -3.54843406 80.61836154 -17.3359375 86.21875 C-29.4093227 90.03278236 -42.72567199 87.29668681 -53.87109375 82.09765625 C-67.01730047 74.88976721 -75.16577083 63.53828836 -79.62890625 49.41015625 C-81.50502792 39.71686093 -80.97624578 29.46498224 -77.19140625 20.34765625 C-76.86269531 19.52910156 -76.53398437 18.71054688 -76.1953125 17.8671875 C-70.90635116 6.06310422 -61.57495137 -2.66028609 -49.703125 -7.7109375 C-32.35360707 -13.80513792 -14.57419965 -10.97078676 0 0 Z " fill="#245FDE" transform="translate(260.19140625,95.65234375)"/>
<path d="M0 0 C5.77718582 4.4250785 9.36073769 10.88520485 11.25 17.8125 C12.28715655 27.99110611 10.8886931 35.88277792 5.5625 44.5625 C-1.38124572 51.31857691 -8.78858381 55.07780397 -18.5625 55.1875 C-24.88433028 55.09423801 -29.34581116 54.02368467 -34.75 50.8125 C-35.801875 50.255625 -36.85375 49.69875 -37.9375 49.125 C-44.77613642 43.50212117 -48.93698842 35.31659267 -50.03125 26.5625 C-50.43023639 16.9868267 -46.689979 9.42790397 -40.5625 2.25 C-28.07204389 -8.57506196 -13.79689341 -8.71382742 0 0 Z " fill="#78A8FB" transform="translate(341.75,153.1875)"/>
<path d="M0 0 C6.51436124 4.32127947 10.17626249 10.57042226 12.8125 17.8125 C13.11886284 20.5449253 13.29157305 22.9692118 13.25 25.6875 C13.24170166 26.39003906 13.23340332 27.09257812 13.22485352 27.81640625 C12.93521338 36.73855925 9.72590348 42.62062813 3.75 49.0859375 C-3.26158293 55.33416261 -11.29695248 56.25566853 -20.375 56.1015625 C-25.38454104 55.72174074 -28.91621776 54.34536102 -33.1875 51.8125 C-34.5178125 51.19375 -34.5178125 51.19375 -35.875 50.5625 C-41.48318355 46.31846921 -44.82337793 40.34295894 -47.1875 33.8125 C-48.34080252 23.61979937 -47.89886548 13.91706836 -41.45703125 5.5703125 C-30.03738476 -6.87505074 -14.30269912 -8.04866719 0 0 Z " fill="#78A8FB" transform="translate(152.1875,152.1875)"/>
<path d="M0 0 C2.99191142 0.43632041 5.98799372 0.74046204 9 1 C9 4 9 4 6.75 7.25 C-8.270455 30.52532263 -3.14971945 68.39830924 -3 95 C-7 95 -7 95 -8.60546875 93.7421875 C-23.97459964 75.6028182 -40.93847548 46.46642083 -40 21.9375 C-38.74301686 14.70253891 -33.44557886 8.74396309 -27.8671875 4.28125 C-18.62249053 -2.06239144 -10.69443639 -3.18956875 0 0 Z " fill="#79A9FB" transform="translate(128,215)"/>
<path d="M0 0 C5.62113194 4.83601098 11.11970883 9.7703696 12.8203125 17.21875 C14.38727956 38.38947522 0.79042744 62.11648571 -10.68359375 79.01171875 C-11.09996094 79.62724609 -11.51632812 80.24277344 -11.9453125 80.87695312 C-17.00772815 88.26296966 -17.00772815 88.26296966 -19.68359375 91.01171875 C-21.00359375 91.01171875 -22.32359375 91.01171875 -23.68359375 91.01171875 C-23.68945999 90.39214294 -23.69532623 89.77256714 -23.70137024 89.13421631 C-23.76621937 82.57797293 -23.8508496 76.0221799 -23.94604492 69.46630859 C-23.97892623 67.03245043 -24.0070673 64.59852274 -24.0300293 62.16455078 C-23.64656138 29.52926478 -23.64656138 29.52926478 -35.68359375 0.01171875 C-36.01359375 -0.97828125 -36.34359375 -1.96828125 -36.68359375 -2.98828125 C-34.18518921 -3.4976647 -31.68535987 -3.99591239 -29.18359375 -4.48828125 C-28.4875 -4.63136719 -27.79140625 -4.77445313 -27.07421875 -4.921875 C-16.90637888 -6.89895498 -8.56053787 -6.34252369 0 0 Z " fill="#79A9FB" transform="translate(356.68359375,218.98828125)"/>
<path d="M0 0 C0.33 0 0.66 0 1 0 C3.46016259 10.09857062 3.22924304 22.44802143 -1 32 C-1.39058594 32.88945312 -1.78117187 33.77890625 -2.18359375 34.6953125 C-8.97468146 48.50834642 -19.35702781 55.27070529 -33.14453125 60.87109375 C-42.09616218 63.69895102 -53.18420548 62.87862678 -62 60 C-62 59.67 -62 59.34 -62 59 C-60.77925781 59.10699219 -59.55851563 59.21398437 -58.30078125 59.32421875 C-41.87412027 60.5906392 -28.33515045 58.714159 -15.23828125 48.10546875 C-5.80602045 39.23288834 -0.38411234 27.81159663 0.07641602 14.84912109 C0.09776658 12.5859611 0.08771022 10.32560171 0.0625 8.0625 C0.05798828 7.28326172 0.05347656 6.50402344 0.04882812 5.70117188 C0.03716908 3.80074732 0.01923877 1.90036294 0 0 Z " fill="#2763E9" transform="translate(276,121)"/>
<path d="M0 0 C3.68539175 1.1845902 5.459684 3.42613872 7.23046875 6.8125 C9.04183001 11.96154723 9.11502346 17.42022247 6.94140625 22.44921875 C3.83590734 27.58204633 3.83590734 27.58204633 1 29 C1.2165625 28.46632813 1.433125 27.93265625 1.65625 27.3828125 C4.07180657 20.91896205 5.66759859 14.32420587 3.09765625 7.66015625 C2.39787911 6.28301476 1.66011719 4.92408745 0.875 3.59375 C0 2 0 2 0 0 Z " fill="#2663EA" transform="translate(487,431)"/>
<path d="M0 0 C0.66 0.33 1.32 0.66 2 1 C-6.33017303 9.5037183 -6.33017303 9.5037183 -10.8125 13.25 C-15.24278661 17.02693121 -19.08183603 21.32007219 -22.96411133 25.64550781 C-26.80417965 29.90208983 -26.80417965 29.90208983 -29 31 C-28 29 -27 27 -26 25 C-25.34 25 -24.68 25 -24 25 C-23.7313916 24.40614502 -23.4627832 23.81229004 -23.18603516 23.20043945 C-21.99467768 20.99012555 -20.79788102 19.55352817 -19.0234375 17.79296875 C-18.43836426 17.20918457 -17.85329102 16.62540039 -17.25048828 16.02392578 C-16.63157715 15.41790527 -16.01266602 14.81188477 -15.375 14.1875 C-14.74706543 13.56601074 -14.11913086 12.94452148 -13.47216797 12.30419922 C-9.1277282 8.03143878 -4.70001283 3.88261929 0 0 Z " fill="#E7EBF3" transform="translate(108,64)"/>
<path d="M0 0 C0.66 0.33 1.32 0.66 2 1 C-2.77723958 4.98103298 -7.88933687 8.46719209 -13 12 C-13.66 11.67 -14.32 11.34 -15 11 C-13.06324055 9.54067427 -11.12562712 8.08250736 -9.1875 6.625 C-8.64029297 6.2125 -8.09308594 5.8 -7.52929688 5.375 C-5.05553395 3.51592968 -2.57565041 1.71710028 0 0 Z " fill="#E6EBF4" transform="translate(125,52)"/>
<path d="M0 0 C0.66 0.33 1.32 0.66 2 1 C0.87895467 2.31587941 -0.24696965 3.62760353 -1.375 4.9375 C-2.00148438 5.66839844 -2.62796875 6.39929688 -3.2734375 7.15234375 C-5 9 -5 9 -7 10 C-6.42424336 6.64749299 -5.40693737 5.06181371 -2.9375 2.75 C-2.38964844 2.22921875 -1.84179688 1.7084375 -1.27734375 1.171875 C-0.64505859 0.59179688 -0.64505859 0.59179688 0 0 Z " fill="#8FB6F4" transform="translate(117,152)"/>
<path d="M0 0 C0.33 0.66 0.66 1.32 1 2 C-4.10334017 3.905247 -8.46342706 5.42589023 -14 5 C-11.42853943 2.42853943 -9.3949583 2.19882003 -5.875 1.375 C-4.77929688 1.11460937 -3.68359375 0.85421875 -2.5546875 0.5859375 C-1.29011719 0.29589844 -1.29011719 0.29589844 0 0 Z " fill="#2E68E8" transform="translate(273,366)"/>
<path d="M0 0 C0.66 0 1.32 0 2 0 C2.87867729 3.73437848 3.08912219 7.16774573 3 11 C0.43383368 7.15075052 0.44902324 4.5650696 0 0 Z " fill="#B5C6EA" transform="translate(41,254)"/>
</svg>
