<?xml version="1.0" encoding="UTF-8"?>
<svg version="1.1" xmlns="http://www.w3.org/2000/svg" width="384" height="137">
<path d="M0 0 C21.45 0 42.9 0 65 0 C65 22.11 65 44.22 65 67 C43.88 67 22.76 67 1 67 C-0.3951713 64.20965739 -0.11955162 61.92774028 -0.11352539 58.80615234 C-0.11340454 57.48671631 -0.11328369 56.16728027 -0.11315918 54.80786133 C-0.10812316 53.40055291 -0.10295655 51.99324495 -0.09765625 50.5859375 C-0.09664917 49.31016846 -0.09564209 48.03439941 -0.09460449 46.7199707 C-0.08935864 41.9383047 -0.07539747 37.15665148 -0.0625 32.375 C-0.041875 21.69125 -0.02125 11.0075 0 0 Z " fill="#EE5127" transform="translate(54,36)"/>
<path d="M0 0 C1.765625 1.63671875 1.765625 1.63671875 3 3 C1.95125002 5.62187494 1.35068687 6.79371361 -1.125 8.25 C-1.74375 8.4975 -2.3625 8.745 -3 9 C-3.99 8.34 -4.98 7.68 -6 7 C-6.99 6.67 -7.98 6.34 -9 6 C-9 5.67 -9 5.34 -9 5 C-14.20814086 4.68751155 -17.67612679 4.95363478 -22 8 C-25.28999443 13.41257148 -25.44082789 17.04457804 -24 23 C-21.82619087 26.40563431 -20.84744051 27.71751983 -17 29 C-15.50225982 29.09225211 -14.00057026 29.1300019 -12.5 29.125 C-11.7265625 29.12757812 -10.953125 29.13015625 -10.15625 29.1328125 C-7.81552983 29.08145813 -7.81552983 29.08145813 -5 28 C-4.67 26.02 -4.34 24.04 -4 22 C-7.3 22 -10.6 22 -14 22 C-14 19.69 -14 17.38 -14 15 C-8.39 15 -2.78 15 3 15 C3.04125 17.7225 3.0825 20.445 3.125 23.25 C3.14320801 24.10110352 3.16141602 24.95220703 3.18017578 25.82910156 C3.23462961 33.24536224 3.23462961 33.24536224 1 36 C-5.06507703 38.77111278 -13.89427084 39.26330128 -20.234375 37.3125 C-25.82214338 34.79170223 -29.44636598 31.26044322 -32.109375 25.671875 C-34.16125981 19.51622056 -34.05664649 12.38953771 -31.25 6.5 C-27.86908262 0.84953946 -24.5940668 -1.59651127 -18.29296875 -3.45703125 C-11.33779122 -5.10399833 -6.0415187 -3.5008025 0 0 Z " fill="#3B393B" transform="translate(219,63)"/>
<path d="M0 0 C2.31 0 4.62 0 7 0 C7 4.95 7 9.9 7 15 C12.94 15 18.88 15 25 15 C25 10.05 25 5.1 25 0 C26.98 0 28.96 0 31 0 C31 12.87 31 25.74 31 39 C29.02 39 27.04 39 25 39 C25 33.39 25 27.78 25 22 C19.06 22 13.12 22 7 22 C7 27.61 7 33.22 7 39 C4.69 39 2.38 39 0 39 C0 26.13 0 13.26 0 0 Z " fill="#FEF7F5" transform="translate(71,49)"/>
<path d="M0 0 C3.64180266 3.90827602 4.48419325 6.18386501 4.75 11.5 C4.5625 14.75 4.5625 14.75 3.5625 15.75 C0.70372091 15.98701239 -2.13633297 16.17219182 -5 16.3125 C-5.80630859 16.35568359 -6.61261719 16.39886719 -7.44335938 16.44335938 C-9.44118805 16.54975262 -11.4393207 16.65040888 -13.4375 16.75 C-11.68377734 18.97222631 -11.68377734 18.97222631 -9.52734375 18.76171875 C-5.66321651 18.50476167 -5.66321651 18.50476167 -2.4375 16.75 C-0.43791636 16.70919217 1.56295254 16.70745644 3.5625 16.75 C2.9025 17.74 2.2425 18.73 1.5625 19.75 C1.5625 21.07 1.5625 22.39 1.5625 23.75 C-1.55207577 26.86457577 -3.93083039 26.71731164 -8.3125 27 C-13.86340104 26.89701482 -17.15484946 24.8653483 -21.3125 21.25 C-24.14000552 17.58979868 -24.07006666 13.86153308 -23.875 9.375 C-23.24275328 5.58151971 -21.86752381 3.6954834 -19.4375 0.75 C-19.1075 -0.24 -18.7775 -1.23 -18.4375 -2.25 C-12.12744191 -3.70616725 -5.33709956 -4.14962753 0 0 Z M-13.3125 5 C-14.01375 5.5775 -14.715 6.155 -15.4375 6.75 C-15.4375 7.41 -15.4375 8.07 -15.4375 8.75 C-12.1375 8.75 -8.8375 8.75 -5.4375 8.75 C-5.1075 7.76 -4.7775 6.77 -4.4375 5.75 C-8.82443777 3.77016758 -8.82443777 3.77016758 -13.3125 5 Z M-4.4375 6.75 C-3.4375 8.75 -3.4375 8.75 -3.4375 8.75 Z " fill="#3B393B" transform="translate(249.4375,74.25)"/>
<path d="M0 0 C2.98954946 2.47898854 4.71134156 3.95043094 5.9609375 7.69921875 C5.9609375 10.66921875 5.9609375 13.63921875 5.9609375 16.69921875 C0.0209375 17.02921875 -5.9190625 17.35921875 -12.0390625 17.69921875 C-10.17585246 19.99024388 -10.17585246 19.99024388 -7.2265625 19.94921875 C-4.07592435 19.70210988 -1.87991068 19.03608848 0.9609375 17.69921875 C1.9509375 19.01921875 2.9409375 20.33921875 3.9609375 21.69921875 C2.98797096 24.35276386 2.30301327 25.49799771 -0.1640625 26.94921875 C-5.36546992 28.30610764 -10.87621587 28.25053515 -16.0390625 26.69921875 C-19.87346155 22.97294809 -22.41437809 18.45630496 -22.6640625 13.07421875 C-22.26134089 7.58953401 -20.07284176 3.6058868 -16.0390625 -0.17578125 C-10.92084664 -3.05477767 -5.03249465 -3.21038452 0 0 Z M-12.0390625 6.69921875 C-12.0390625 7.68921875 -12.0390625 8.67921875 -12.0390625 9.69921875 C-8.7390625 9.69921875 -5.4390625 9.69921875 -2.0390625 9.69921875 C-3.53056924 5.56498462 -3.53056924 5.56498462 -6.4765625 4.82421875 C-9.28349667 4.43275524 -9.28349667 4.43275524 -12.0390625 6.69921875 Z M-14.0390625 7.69921875 C-13.0390625 9.69921875 -13.0390625 9.69921875 -13.0390625 9.69921875 Z " fill="#3B393B" transform="translate(177.0390625,73.30078125)"/>
<path d="M0 0 C3.1786241 2.5699514 4.70728109 4.12184327 6 8 C6.08106686 9.55421729 6.10756898 11.11167027 6.09765625 12.66796875 C6.09443359 13.56064453 6.09121094 14.45332031 6.08789062 15.37304688 C6.07951172 16.30181641 6.07113281 17.23058594 6.0625 18.1875 C6.05798828 19.12787109 6.05347656 20.06824219 6.04882812 21.03710938 C6.03704626 23.35813712 6.02059558 25.67903644 6 28 C3.36 28 0.72 28 -2 28 C-2.02505615 27.42967041 -2.0501123 26.85934082 -2.07592773 26.27172852 C-2.19156549 23.70173843 -2.31443624 21.13214473 -2.4375 18.5625 C-2.47681641 17.66466797 -2.51613281 16.76683594 -2.55664062 15.84179688 C-2.59853516 14.98779297 -2.64042969 14.13378906 -2.68359375 13.25390625 C-2.72025146 12.46314697 -2.75690918 11.6723877 -2.79467773 10.85766602 C-2.80563257 8.98598559 -2.80563257 8.98598559 -4 8 C-6.95817107 7.74994614 -6.95817107 7.74994614 -10 8 C-12.35358251 10.35358251 -12.27871904 10.92968394 -12.4140625 14.1328125 C-12.47207031 15.34130859 -12.47207031 15.34130859 -12.53125 16.57421875 C-12.57765625 17.83685547 -12.57765625 17.83685547 -12.625 19.125 C-12.68300781 20.39923828 -12.68300781 20.39923828 -12.7421875 21.69921875 C-12.83656494 23.79911684 -12.91937586 25.89952891 -13 28 C-15.64 28 -18.28 28 -21 28 C-21 18.76 -21 9.52 -21 0 C-17.66666667 0 -14.33333333 0 -11 0 C-7.14822667 -1.28392444 -3.85543123 -1.11228815 0 0 Z " fill="#3A393B" transform="translate(278,72)"/>
<path d="M0 0 C3.3 0.33 6.6 0.66 10 1 C8.31626595 4.3674681 6.68918436 6.83584191 4.375 9.75 C3.74335938 10.54921875 3.11171875 11.3484375 2.4609375 12.171875 C1.97882813 12.77515625 1.49671875 13.3784375 1 14 C4.98702 20.1124611 4.98702 20.1124611 9.375 25.9375 C11 28 11 28 11 30 C2.22421525 30.11928251 2.22421525 30.11928251 -0.77734375 27.375 C-2.125 25.4375 -2.125 25.4375 -4 22 C-6.33524782 24.25740623 -8.18705073 26.2805761 -10 29 C-12.3828125 29.51171875 -12.3828125 29.51171875 -15.125 29.6875 C-16.49011719 29.78611328 -16.49011719 29.78611328 -17.8828125 29.88671875 C-18.58148438 29.92410156 -19.28015625 29.96148437 -20 30 C-18.32253891 25.17197746 -15.66993231 22.00711612 -12.36328125 18.18359375 C-10.80923201 16.14749865 -10.80923201 16.14749865 -11.0703125 14.01171875 C-12.24675605 11.46605309 -13.77524758 9.53414534 -15.5625 7.375 C-19 3.21126761 -19 3.21126761 -19 1 C-11.17847534 0.07982063 -11.17847534 0.07982063 -8.2890625 2.3359375 C-6.9375 4 -6.9375 4 -5 7 C-2.47411298 4.63707344 -1.11179163 3.33537489 0 0 Z " fill="#3B393B" transform="translate(319,71)"/>
<path d="M0 0 C0.33 2.64 0.66 5.28 1 8 C-1.64 8.33 -4.28 8.66 -7 9 C-7.33 15.6 -7.66 22.2 -8 29 C-10.64 29 -13.28 29 -16 29 C-16 19.76 -16 10.52 -16 1 C-12.7 1 -9.4 1 -6 1 C-3 0 -3 0 0 0 Z " fill="#3C393B" transform="translate(155,71)"/>
<path d="M0 0 C2.64 0 5.28 0 8 0 C8 9.24 8 18.48 8 28 C5.36 28 2.72 28 0 28 C0 18.76 0 9.52 0 0 Z " fill="#39393B" transform="translate(289,72)"/>
<path d="M0 0 C2.64 0 5.28 0 8 0 C8 9.24 8 18.48 8 28 C5.36 28 2.72 28 0 28 C0 18.76 0 9.52 0 0 Z " fill="#39393B" transform="translate(126,72)"/>
<path d="M0 0 C0.66 0.33 1.32 0.66 2 1 C2.75 4.4375 2.75 4.4375 3 8 C0.64046906 10.35953094 -0.77895617 10.49141413 -4 11 C-5.1875 8.25 -5.1875 8.25 -6 5 C-4.3569424 1.80036151 -3.44852854 1.14950951 0 0 Z " fill="#3F393A" transform="translate(131,58)"/>
<path d="M0 0 C0.33 0 0.66 0 1 0 C1 21.12 1 42.24 1 64 C0.67 64 0.34 64 0 64 C0 42.88 0 21.76 0 0 Z " fill="#663A37" transform="translate(120,37)"/>
<path d="M0 0 C4.875 0.875 4.875 0.875 6 2 C6.1875 4.4375 6.1875 4.4375 6 7 C4 9 4 9 1.375 9.125 C0.59125 9.08375 -0.1925 9.0425 -1 9 C-2.1875 6.75 -2.1875 6.75 -3 4 C-1.625 1.6875 -1.625 1.6875 0 0 Z " fill="#E24F27" transform="translate(291,59)"/>
<path d="M0 0 C0.33 0 0.66 0 1 0 C1 20.79 1 41.58 1 63 C0.67 63 0.34 63 0 63 C0 42.21 0 21.42 0 0 Z " fill="#663A37" transform="translate(52,37)"/>
<path d="M0 0 C20.79 0 41.58 0 63 0 C63 0.33 63 0.66 63 1 C42.21 1 21.42 1 0 1 C0 0.67 0 0.34 0 0 Z " fill="#663A37" transform="translate(55,34)"/>
<path d="M0 0 C0.33 0 0.66 0 1 0 C1 8.91 1 17.82 1 27 C0.67 27 0.34 27 0 27 C-0.19892707 23.81310715 -0.38204784 20.62548809 -0.5625 17.4375 C-0.61857422 16.54224609 -0.67464844 15.64699219 -0.73242188 14.72460938 C-1.01202594 9.63581532 -0.92865379 5.01473048 0 0 Z " fill="#663A37" transform="translate(255,73)"/>
<path d="M0 0 C2.23413013 3.35119519 2.23847762 4.4177755 2.1953125 8.32421875 C2.18886719 9.35224609 2.18242187 10.38027344 2.17578125 11.43945312 C2.15902344 12.51130859 2.14226562 13.58316406 2.125 14.6875 C2.11597656 15.77095703 2.10695313 16.85441406 2.09765625 17.97070312 C2.0740734 20.6473571 2.04116126 23.32356797 2 26 C1.34 26.33 0.68 26.66 0 27 C0 18.09 0 9.18 0 0 Z " fill="#663A37" transform="translate(298,72)"/>
<path d="M0 0 C0.33 0 0.66 0 1 0 C1 9.24 1 18.48 1 28 C0.67 28 0.34 28 0 28 C0 18.76 0 9.52 0 0 Z " fill="#663A37" transform="translate(287,72)"/>
<path d="M0 0 C0.33 0 0.66 0 1 0 C1 9.24 1 18.48 1 28 C0.67 28 0.34 28 0 28 C0 18.76 0 9.52 0 0 Z " fill="#663A37" transform="translate(137,72)"/>
<path d="M0 0 C0.33 0 0.66 0 1 0 C1 9.24 1 18.48 1 28 C0.67 28 0.34 28 0 28 C0 18.76 0 9.52 0 0 Z " fill="#663A37" transform="translate(124,72)"/>
<path d="M0 0 C0.33 0 0.66 0 1 0 C1 8.91 1 17.82 1 27 C0.67 27 0.34 27 0 27 C0 18.09 0 9.18 0 0 Z " fill="#663A37" transform="translate(135,73)"/>
<path d="M0 0 C2.15164703 3.22747055 2.27245079 4.20505639 2.25 7.9375 C2.25515625 8.79214844 2.2603125 9.64679688 2.265625 10.52734375 C2 13 2 13 0 17 C0 11.39 0 5.78 0 0 Z " fill="#663A37" transform="translate(223,78)"/>
<path d="M0 0 C0.33 0 0.66 0 1 0 C1 6.27 1 12.54 1 19 C0.67 19 0.34 19 0 19 C0 12.73 0 6.46 0 0 Z " fill="#663A37" transform="translate(285,81)"/>
<path d="M0 0 C0.33 0 0.66 0 1 0 C1 6.27 1 12.54 1 19 C0.67 19 0.34 19 0 19 C0 12.73 0 6.46 0 0 Z " fill="#663A37" transform="translate(274,81)"/>
<path d="M0 0 C0.33 0 0.66 0 1 0 C1 5.94 1 11.88 1 18 C0.67 18 0.34 18 0 18 C0 12.06 0 6.12 0 0 Z " fill="#663A37" transform="translate(266,82)"/>
<path d="M0 0 C4.95 0 9.9 0 15 0 C15 0.33 15 0.66 15 1 C10.05 1 5.1 1 0 1 C0 0.67 0 0.34 0 0 Z " fill="#663A37" transform="translate(206,76)"/>
<path d="M0 0 C3.3 0 6.6 0 10 0 C6.1496895 2.56687367 4.41430237 1.83288724 0 1 C0 0.67 0 0.34 0 0 Z " fill="#663A37" transform="translate(236,91)"/>
<path d="M0 0 C3.3 0 6.6 0 10 0 C6.1496895 2.56687367 4.41430237 1.83288724 0 1 C0 0.67 0 0.34 0 0 Z " fill="#663A37" transform="translate(165,91)"/>
<path d="M0 0 C2.625 0.375 2.625 0.375 5 1 C5 1.33 5 1.66 5 2 C2.69 2 0.38 2 -2 2 C-1.34 1.34 -0.68 0.68 0 0 Z " fill="#663A37" transform="translate(291,69)"/>
<path d="M0 0 C2.625 0.375 2.625 0.375 5 1 C5 1.33 5 1.66 5 2 C2.69 2 0.38 2 -2 2 C-1.34 1.34 -0.68 0.68 0 0 Z " fill="#663A37" transform="translate(128,69)"/>
<path d="M0 0 C0.33 0 0.66 0 1 0 C1.33 2.64 1.66 5.28 2 8 C1.34 8 0.68 8 0 8 C0 5.36 0 2.72 0 0 Z " fill="#663A37" transform="translate(184,81)"/>
<path d="M0 0 C2.97 0 5.94 0 9 0 C9 0.33 9 0.66 9 1 C6.03 1 3.06 1 0 1 C0 0.67 0 0.34 0 0 Z " fill="#663A37" transform="translate(202,91)"/>
<path d="M0 0 C0.33 0 0.66 0 1 0 C1 2.64 1 5.28 1 8 C0.67 8 0.34 8 0 8 C0 5.36 0 2.72 0 0 Z " fill="#663A37" transform="translate(153,82)"/>
<path d="M0 0 C2.64 0 5.28 0 8 0 C8 0.33 8 0.66 8 1 C5.36 1 2.72 1 0 1 C0 0.67 0 0.34 0 0 Z " fill="#663A37" transform="translate(320,70)"/>
<path d="M0 0 C2.64 0 5.28 0 8 0 C8 0.33 8 0.66 8 1 C5.36 1 2.72 1 0 1 C0 0.67 0 0.34 0 0 Z " fill="#663A37" transform="translate(300,70)"/>
<path d="M0 0 C2.31 0 4.62 0 7 0 C7 0.33 7 0.66 7 1 C4.69 1 2.38 1 0 1 C0 0.67 0 0.34 0 0 Z " fill="#663A37" transform="translate(203,102)"/>
<path d="M0 0 C0.66 1.32 1.32 2.64 2 4 C1.34 4.66 0.68 5.32 0 6 C0 4.02 0 2.04 0 0 Z " fill="#663A37" transform="translate(156,72)"/>
<path d="M0 0 C2.31 0 4.62 0 7 0 C7 0.33 7 0.66 7 1 C4.69 1 2.38 1 0 1 C0 0.67 0 0.34 0 0 Z " fill="#663A37" transform="translate(258,70)"/>
<path d="M0 0 C2.31 0 4.62 0 7 0 C7 0.33 7 0.66 7 1 C4.69 1 2.38 1 0 1 C0 0.67 0 0.34 0 0 Z " fill="#663A37" transform="translate(139,70)"/>
<path d="M0 0 C1.98 0 3.96 0 6 0 C6 0.33 6 0.66 6 1 C4.02 1 2.04 1 0 1 C0 0.67 0 0.34 0 0 Z " fill="#663A37" transform="translate(238,102)"/>
<path d="M0 0 C1.98 0 3.96 0 6 0 C6 0.33 6 0.66 6 1 C4.02 1 2.04 1 0 1 C0 0.67 0 0.34 0 0 Z " fill="#663A37" transform="translate(167,102)"/>
<path d="M0 0 C1.98 0 3.96 0 6 0 C6 0.33 6 0.66 6 1 C4.02 1 2.04 1 0 1 C0 0.67 0 0.34 0 0 Z " fill="#663A37" transform="translate(268,80)"/>
<path d="M0 0 C1.98 0 3.96 0 6 0 C6 0.33 6 0.66 6 1 C4.02 1 2.04 1 0 1 C0 0.67 0 0.34 0 0 Z " fill="#663A37" transform="translate(203,68)"/>
<path d="M0 0 C1.65 0 3.3 0 5 0 C5 0.33 5 0.66 5 1 C3.35 1 1.7 1 0 1 C0 0.67 0 0.34 0 0 Z " fill="#663A37" transform="translate(150,80)"/>
<path d="M0 0 C0.33 0 0.66 0 1 0 C1 1.65 1 3.3 1 5 C0.67 5 0.34 5 0 5 C0 3.35 0 1.7 0 0 Z " fill="#663A37" transform="translate(184,74)"/>
<path d="M0 0 C0.33 0 0.66 0 1 0 C1 1.65 1 3.3 1 5 C0.67 5 0.34 5 0 5 C0 3.35 0 1.7 0 0 Z " fill="#663A37" transform="translate(135,61)"/>
<path d="M0 0 C1 4 1 4 1 4 Z " fill="#663A37" transform="translate(298,62)"/>
<path d="M0 0 C4 1 4 1 4 1 Z " fill="#663A37" transform="translate(204,57)"/>
<path d="M0 0 C3 1 3 1 3 1 Z " fill="#663A37" transform="translate(179,91)"/>
<path d="" fill="#663A37" transform="translate(0,0)"/>
<path d="M0 0 C3 1 3 1 3 1 Z " fill="#663A37" transform="translate(210,58)"/>
<path d="M0 0 C2 1 2 1 2 1 Z " fill="#663A37" transform="translate(234,101)"/>
<path d="M0 0 C2 1 2 1 2 1 Z " fill="#663A37" transform="translate(212,101)"/>
<path d="M0 0 C2 1 2 1 2 1 Z " fill="#663A37" transform="translate(199,101)"/>
<path d="M0 0 C2 1 2 1 2 1 Z " fill="#663A37" transform="translate(175,101)"/>
<path d="M0 0 C2 1 2 1 2 1 Z " fill="#663A37" transform="translate(164,101)"/>
<path d="M0 0 C2 1 2 1 2 1 Z " fill="#663A37" transform="translate(232,100)"/>
<path d="" fill="#663A37" transform="translate(0,0)"/>
<path d="" fill="#663A37" transform="translate(0,0)"/>
<path d="" fill="#663A37" transform="translate(0,0)"/>
<path d="M0 0 C2 1 2 1 2 1 Z " fill="#663A37" transform="translate(212,90)"/>
<path d="M0 0 C2 1 2 1 2 1 Z " fill="#663A37" transform="translate(199,90)"/>
<path d="" fill="#663A37" transform="translate(0,0)"/>
<path d="" fill="#663A37" transform="translate(0,0)"/>
<path d="" fill="#663A37" transform="translate(0,0)"/>
<path d="M0 0 C2 1 2 1 2 1 Z " fill="#663A37" transform="translate(242,80)"/>
<path d="M0 0 C2 1 2 1 2 1 Z " fill="#663A37" transform="translate(236,80)"/>
<path d="" fill="#663A37" transform="translate(0,0)"/>
<path d="" fill="#663A37" transform="translate(0,0)"/>
<path d="M0 0 C2 1 2 1 2 1 Z " fill="#663A37" transform="translate(171,80)"/>
<path d="" fill="#663A37" transform="translate(0,0)"/>
<path d="" fill="#663A37" transform="translate(0,0)"/>
<path d="M0 0 C2 1 2 1 2 1 Z " fill="#663A37" transform="translate(175,71)"/>
<path d="M0 0 C2 1 2 1 2 1 Z " fill="#663A37" transform="translate(275,70)"/>
<path d="M0 0 C2 1 2 1 2 1 Z " fill="#663A37" transform="translate(268,70)"/>
<path d="M0 0 C2 1 2 1 2 1 Z " fill="#663A37" transform="translate(243,70)"/>
<path d="M0 0 C2 1 2 1 2 1 Z " fill="#663A37" transform="translate(235,70)"/>
<path d="M0 0 C2 1 2 1 2 1 Z " fill="#663A37" transform="translate(198,70)"/>
<path d="M0 0 C2 1 2 1 2 1 Z " fill="#663A37" transform="translate(173,70)"/>
<path d="M0 0 C2 1 2 1 2 1 Z " fill="#663A37" transform="translate(164,70)"/>
<path d="M0 0 C2 1 2 1 2 1 Z " fill="#663A37" transform="translate(200,69)"/>
<path d="" fill="#663A37" transform="translate(0,0)"/>
<path d="" fill="#663A37" transform="translate(0,0)"/>
<path d="M0 0 C2 1 2 1 2 1 Z " fill="#663A37" transform="translate(217,61)"/>
<path d="M0 0 C2 1 2 1 2 1 Z " fill="#663A37" transform="translate(195,60)"/>
<path d="M0 0 C2 1 2 1 2 1 Z " fill="#663A37" transform="translate(213,59)"/>
<path d="M0 0 C2 1 2 1 2 1 Z " fill="#663A37" transform="translate(197,59)"/>
<path d="M0 0 C2 1 2 1 2 1 Z " fill="#663A37" transform="translate(200,58)"/>
<path d="M0 0 C2 1 2 1 2 1 Z " fill="#663A37" transform="translate(292,57)"/>
<path d="M0 0 C2 1 2 1 2 1 Z " fill="#663A37" transform="translate(129,57)"/>
<path d="" fill="#663A37" transform="translate(0,0)"/>
<path d="" fill="#663A37" transform="translate(0,0)"/>
<path d="" fill="#663A37" transform="translate(0,0)"/>
<path d="" fill="#663A37" transform="translate(0,0)"/>
<path d="" fill="#663A37" transform="translate(0,0)"/>
<path d="" fill="#663A37" transform="translate(0,0)"/>
<path d="" fill="#663A37" transform="translate(0,0)"/>
<path d="" fill="#663A37" transform="translate(0,0)"/>
<path d="" fill="#663A37" transform="translate(0,0)"/>
<path d="" fill="#663A37" transform="translate(0,0)"/>
<path d="" fill="#663A37" transform="translate(0,0)"/>
<path d="" fill="#663A37" transform="translate(0,0)"/>
<path d="" fill="#663A37" transform="translate(0,0)"/>
<path d="" fill="#663A37" transform="translate(0,0)"/>
<path d="" fill="#663A37" transform="translate(0,0)"/>
<path d="" fill="#663A37" transform="translate(0,0)"/>
<path d="" fill="#663A37" transform="translate(0,0)"/>
<path d="" fill="#663A37" transform="translate(0,0)"/>
<path d="" fill="#663A37" transform="translate(0,0)"/>
<path d="" fill="#663A37" transform="translate(0,0)"/>
<path d="" fill="#663A37" transform="translate(0,0)"/>
<path d="" fill="#663A37" transform="translate(0,0)"/>
<path d="" fill="#663A37" transform="translate(0,0)"/>
<path d="" fill="#663A37" transform="translate(0,0)"/>
<path d="" fill="#663A37" transform="translate(0,0)"/>
<path d="" fill="#663A37" transform="translate(0,0)"/>
<path d="" fill="#663A37" transform="translate(0,0)"/>
<path d="" fill="#663A37" transform="translate(0,0)"/>
<path d="" fill="#663A37" transform="translate(0,0)"/>
<path d="" fill="#663A37" transform="translate(0,0)"/>
<path d="" fill="#663A37" transform="translate(0,0)"/>
<path d="" fill="#663A37" transform="translate(0,0)"/>
<path d="" fill="#663A37" transform="translate(0,0)"/>
<path d="" fill="#663A37" transform="translate(0,0)"/>
<path d="" fill="#663A37" transform="translate(0,0)"/>
<path d="" fill="#663A37" transform="translate(0,0)"/>
<path d="" fill="#663A37" transform="translate(0,0)"/>
<path d="" fill="#663A37" transform="translate(0,0)"/>
<path d="" fill="#663A37" transform="translate(0,0)"/>
<path d="" fill="#663A37" transform="translate(0,0)"/>
<path d="" fill="#663A37" transform="translate(0,0)"/>
<path d="" fill="#663A37" transform="translate(0,0)"/>
<path d="" fill="#663A37" transform="translate(0,0)"/>
<path d="" fill="#663A37" transform="translate(0,0)"/>
<path d="" fill="#663A37" transform="translate(0,0)"/>
<path d="" fill="#663A37" transform="translate(0,0)"/>
<path d="" fill="#663A37" transform="translate(0,0)"/>
<path d="" fill="#663A37" transform="translate(0,0)"/>
<path d="" fill="#663A37" transform="translate(0,0)"/>
<path d="" fill="#663A37" transform="translate(0,0)"/>
<path d="" fill="#663A37" transform="translate(0,0)"/>
<path d="" fill="#663A37" transform="translate(0,0)"/>
<path d="" fill="#663A37" transform="translate(0,0)"/>
<path d="" fill="#663A37" transform="translate(0,0)"/>
<path d="" fill="#663A37" transform="translate(0,0)"/>
<path d="" fill="#663A37" transform="translate(0,0)"/>
<path d="" fill="#663A37" transform="translate(0,0)"/>
<path d="" fill="#663A37" transform="translate(0,0)"/>
<path d="" fill="#663A37" transform="translate(0,0)"/>
<path d="" fill="#663A37" transform="translate(0,0)"/>
<path d="" fill="#663A37" transform="translate(0,0)"/>
<path d="" fill="#663A37" transform="translate(0,0)"/>
<path d="" fill="#663A37" transform="translate(0,0)"/>
<path d="" fill="#663A37" transform="translate(0,0)"/>
<path d="" fill="#663A37" transform="translate(0,0)"/>
<path d="" fill="#663A37" transform="translate(0,0)"/>
<path d="" fill="#663A37" transform="translate(0,0)"/>
<path d="" fill="#663A37" transform="translate(0,0)"/>
<path d="" fill="#663A37" transform="translate(0,0)"/>
<path d="" fill="#663A37" transform="translate(0,0)"/>
<path d="" fill="#663A37" transform="translate(0,0)"/>
<path d="" fill="#663A37" transform="translate(0,0)"/>
<path d="" fill="#663A37" transform="translate(0,0)"/>
<path d="" fill="#663A37" transform="translate(0,0)"/>
<path d="" fill="#663A37" transform="translate(0,0)"/>
<path d="" fill="#663A37" transform="translate(0,0)"/>
<path d="" fill="#663A37" transform="translate(0,0)"/>
<path d="" fill="#663A37" transform="translate(0,0)"/>
<path d="" fill="#663A37" transform="translate(0,0)"/>
<path d="" fill="#663A37" transform="translate(0,0)"/>
<path d="" fill="#663A37" transform="translate(0,0)"/>
<path d="" fill="#663A37" transform="translate(0,0)"/>
<path d="" fill="#663A37" transform="translate(0,0)"/>
<path d="" fill="#663A37" transform="translate(0,0)"/>
<path d="" fill="#663A37" transform="translate(0,0)"/>
<path d="" fill="#663A37" transform="translate(0,0)"/>
<path d="" fill="#663A37" transform="translate(0,0)"/>
<path d="" fill="#663A37" transform="translate(0,0)"/>
<path d="" fill="#663A37" transform="translate(0,0)"/>
<path d="" fill="#663A37" transform="translate(0,0)"/>
<path d="" fill="#663A37" transform="translate(0,0)"/>
<path d="" fill="#663A37" transform="translate(0,0)"/>
<path d="" fill="#663A37" transform="translate(0,0)"/>
<path d="" fill="#663A37" transform="translate(0,0)"/>
<path d="" fill="#663A37" transform="translate(0,0)"/>
<path d="" fill="#663A37" transform="translate(0,0)"/>
<path d="" fill="#663A37" transform="translate(0,0)"/>
<path d="" fill="#663A37" transform="translate(0,0)"/>
<path d="" fill="#663A37" transform="translate(0,0)"/>
<path d="" fill="#663A37" transform="translate(0,0)"/>
<path d="" fill="#663A37" transform="translate(0,0)"/>
<path d="" fill="#663A37" transform="translate(0,0)"/>
<path d="" fill="#663A37" transform="translate(0,0)"/>
<path d="" fill="#663A37" transform="translate(0,0)"/>
<path d="" fill="#663A37" transform="translate(0,0)"/>
<path d="" fill="#663A37" transform="translate(0,0)"/>
<path d="" fill="#663A37" transform="translate(0,0)"/>
<path d="" fill="#663A37" transform="translate(0,0)"/>
<path d="" fill="#663A37" transform="translate(0,0)"/>
<path d="" fill="#663A37" transform="translate(0,0)"/>
<path d="" fill="#663A37" transform="translate(0,0)"/>
<path d="" fill="#663A37" transform="translate(0,0)"/>
<path d="" fill="#663A37" transform="translate(0,0)"/>
<path d="" fill="#663A37" transform="translate(0,0)"/>
<path d="" fill="#663A37" transform="translate(0,0)"/>
<path d="" fill="#663A37" transform="translate(0,0)"/>
<path d="" fill="#663A37" transform="translate(0,0)"/>
<path d="" fill="#663A37" transform="translate(0,0)"/>
<path d="" fill="#663A37" transform="translate(0,0)"/>
<path d="" fill="#663A37" transform="translate(0,0)"/>
<path d="" fill="#663A37" transform="translate(0,0)"/>
<path d="" fill="#663A37" transform="translate(0,0)"/>
<path d="" fill="#663A37" transform="translate(0,0)"/>
<path d="" fill="#663A37" transform="translate(0,0)"/>
<path d="" fill="#663A37" transform="translate(0,0)"/>
<path d="" fill="#663A37" transform="translate(0,0)"/>
<path d="" fill="#663A37" transform="translate(0,0)"/>
<path d="" fill="#663A37" transform="translate(0,0)"/>
<path d="" fill="#663A37" transform="translate(0,0)"/>
<path d="" fill="#663A37" transform="translate(0,0)"/>
<path d="" fill="#663A37" transform="translate(0,0)"/>
<path d="" fill="#663A37" transform="translate(0,0)"/>
<path d="" fill="#663A37" transform="translate(0,0)"/>
<path d="" fill="#663A37" transform="translate(0,0)"/>
<path d="" fill="#663A37" transform="translate(0,0)"/>
<path d="" fill="#663A37" transform="translate(0,0)"/>
<path d="" fill="#663A37" transform="translate(0,0)"/>
<path d="" fill="#663A37" transform="translate(0,0)"/>
<path d="" fill="#663A37" transform="translate(0,0)"/>
<path d="" fill="#663A37" transform="translate(0,0)"/>
<path d="" fill="#663A37" transform="translate(0,0)"/>
<path d="" fill="#663A37" transform="translate(0,0)"/>
<path d="" fill="#663A37" transform="translate(0,0)"/>
<path d="" fill="#663A37" transform="translate(0,0)"/>
<path d="" fill="#663A37" transform="translate(0,0)"/>
<path d="" fill="#663A37" transform="translate(0,0)"/>
<path d="" fill="#663A37" transform="translate(0,0)"/>
</svg>
