<?xml version="1.0" encoding="UTF-8"?>
<svg version="1.1" xmlns="http://www.w3.org/2000/svg" width="76" height="78">
<path d="M0 0 C21.45 0 42.9 0 65 0 C65 22.11 65 44.22 65 67 C43.88 67 22.76 67 1 67 C-0.3951713 64.20965739 -0.11955162 61.92774028 -0.11352539 58.80615234 C-0.11340454 57.48671631 -0.11328369 56.16728027 -0.11315918 54.80786133 C-0.10812316 53.40055291 -0.10295655 51.99324495 -0.09765625 50.5859375 C-0.09664917 49.31016846 -0.09564209 48.03439941 -0.09460449 46.7199707 C-0.08935864 41.9383047 -0.07539747 37.15665148 -0.0625 32.375 C-0.041875 21.69125 -0.02125 11.0075 0 0 Z " fill="#ED5228" transform="translate(6,7)"/>
<path d="M0 0 C2.31 0 4.62 0 7 0 C7 4.95 7 9.9 7 15 C12.94 15 18.88 15 25 15 C25 10.05 25 5.1 25 0 C26.98 0 28.96 0 31 0 C31 12.87 31 25.74 31 39 C29.02 39 27.04 39 25 39 C25 33.39 25 27.78 25 22 C19.06 22 13.12 22 7 22 C7 27.61 7 33.22 7 39 C4.69 39 2.38 39 0 39 C0 26.13 0 13.26 0 0 Z " fill="#FEF7F5" transform="translate(23,20)"/>
<path d="M0 0 C0.33 0 0.66 0 1 0 C1 21.12 1 42.24 1 64 C0.67 64 0.34 64 0 64 C0 42.88 0 21.76 0 0 Z " fill="#555555" transform="translate(72,8)"/>
<path d="M0 0 C0.33 0 0.66 0 1 0 C1 20.79 1 41.58 1 63 C0.67 63 0.34 63 0 63 C0 42.21 0 21.42 0 0 Z " fill="#555555" transform="translate(4,8)"/>
<path d="M0 0 C20.79 0 41.58 0 63 0 C63 0.33 63 0.66 63 1 C42.21 1 21.42 1 0 1 C0 0.67 0 0.34 0 0 Z " fill="#555555" transform="translate(7,5)"/>
</svg>
